# xmcd
#
# Track frame offsets:
#	187
#	14970
#	25375
#	37450
#	56475
#	71787
#	85457
#	100540
#	113760
#	126070
#
# Disc length: 1859 seconds
#
# Revision: 0
# Processed by: cddbd v1.5.2PL0 Copyright (c) Steve Scherf et al.
# Submitted via: dBpowerAMP V4.0
#
DISCID=8f07410a
DTITLE=Carl Perkins - Carl Perkins and Sons
DYEAR=1993
DGENRE=Country
TTITLE0=The Hurt Put On By You
TTITLE1=I Don't Like What I'm Seeing In You
TTITLE2=Matchbox
TTITLE3=Love Kept It All Together
TTITLE4=The Courtroom
TTITLE5=Redneck
TTITLE6=I Don't Want To Fall In Love Again
TTITLE7=Boppin' The Blues
TTITLE8=Mama
TTITLE9=Sitting On Top Of The World
EXTD=
EXTT0=
EXTT1=
EXTT2=
EXTT3=
EXTT4=
EXTT5=
EXTT6=
EXTT7=
EXTT8=
EXTT9=
PLAYORDER=
